<svg width="416" height="265" viewBox="0 0 416 265" fill="none" xmlns="http://www.w3.org/2000/svg">
<rect x="2.5" y="2.5" width="411" height="260" stroke="#484848" stroke-width="5"/>
<path d="M60.666 112.984C56.074 112.984 51.6733 112.383 47.464 111.18C43.2547 109.923 39.8653 108.31 37.296 106.342L41.806 96.338C44.266 98.0873 47.1633 99.536 50.498 100.684C53.8873 101.777 57.304 102.324 60.748 102.324C63.372 102.324 65.4767 102.078 67.062 101.586C68.702 101.039 69.9047 100.301 70.67 99.372C71.4353 98.4427 71.818 97.3767 71.818 96.174C71.818 94.6433 71.2167 93.4407 70.014 92.566C68.8113 91.6367 67.226 90.8987 65.258 90.352C63.29 89.7507 61.1033 89.204 58.698 88.712C56.3473 88.1653 53.9693 87.5093 51.564 86.744C49.2133 85.9787 47.054 84.9947 45.086 83.792C43.118 82.5893 41.5053 81.004 40.248 79.036C39.0453 77.068 38.444 74.5533 38.444 71.492C38.444 68.212 39.3187 65.2327 41.068 62.554C42.872 59.8207 45.5507 57.6613 49.104 56.076C52.712 54.436 57.222 53.616 62.634 53.616C66.242 53.616 69.7953 54.0533 73.294 54.928C76.7927 55.748 79.8813 57.0053 82.56 58.7L78.46 68.786C75.7813 67.2553 73.1027 66.1347 70.424 65.424C67.7453 64.6587 65.1213 64.276 62.552 64.276C59.9827 64.276 57.878 64.5767 56.238 65.178C54.598 65.7793 53.4227 66.572 52.712 67.556C52.0013 68.4853 51.646 69.5787 51.646 70.836C51.646 72.312 52.2473 73.5147 53.45 74.444C54.6527 75.3187 56.238 76.0293 58.206 76.576C60.174 77.1227 62.3333 77.6693 64.684 78.216C67.0893 78.7627 69.4673 79.3913 71.818 80.102C74.2233 80.8127 76.41 81.7693 78.378 82.972C80.346 84.1747 81.9313 85.76 83.134 87.728C84.3913 89.696 85.02 92.1833 85.02 95.19C85.02 98.4153 84.118 101.367 82.314 104.046C80.51 106.725 77.804 108.884 74.196 110.524C70.6427 112.164 66.1327 112.984 60.666 112.984ZM105.186 112V65.424H86.8182V54.6H136.838V65.424H118.47V112H105.186ZM156.204 77.724H183.838V88.056H156.204V77.724ZM157.188 101.34H188.43V112H143.986V54.6H187.364V65.26H157.188V101.34ZM210.889 98.88L210.151 83.546L237.621 54.6H252.381L227.617 81.25L220.237 89.122L210.889 98.88ZM198.999 112V54.6H212.201V112H198.999ZM238.277 112L217.859 86.99L226.551 77.56L253.775 112H238.277ZM259.699 112V54.6H272.983V101.176H301.765V112H259.699ZM59.846 212.984C55.6367 212.984 51.892 212.301 48.612 210.934C45.332 209.567 42.7353 207.709 40.822 205.358C38.9087 203.007 37.952 200.301 37.952 197.24C37.952 194.397 38.5807 191.855 39.838 189.614C41.0953 187.318 43.0907 185.186 45.824 183.218C48.5573 181.195 52.0287 179.227 56.238 177.314C59.2993 175.893 61.7047 174.635 63.454 173.542C65.2033 172.449 66.4333 171.41 67.144 170.426C67.8547 169.387 68.21 168.349 68.21 167.31C68.21 165.889 67.718 164.741 66.734 163.866C65.8047 162.991 64.4107 162.554 62.552 162.554C60.584 162.554 59.0533 163.046 57.96 164.03C56.8667 165.014 56.32 166.271 56.32 167.802C56.32 168.622 56.484 169.442 56.812 170.262C57.14 171.027 57.7687 171.929 58.698 172.968C59.6273 173.952 60.9393 175.237 62.634 176.822L92.892 204.866L85.922 212.984L52.548 181.988C50.6347 180.239 49.104 178.599 47.956 177.068C46.808 175.537 45.9607 174.034 45.414 172.558C44.922 171.082 44.676 169.551 44.676 167.966C44.676 165.178 45.414 162.718 46.89 160.586C48.366 158.454 50.4433 156.814 53.122 155.666C55.8007 154.463 58.944 153.862 62.552 153.862C65.8867 153.862 68.7567 154.409 71.162 155.502C73.622 156.541 75.5353 158.044 76.902 160.012C78.3233 161.98 79.034 164.331 79.034 167.064C79.034 169.469 78.4327 171.683 77.23 173.706C76.0273 175.674 74.1413 177.533 71.572 179.282C69.0573 181.031 65.75 182.808 61.65 184.612C58.862 185.869 56.648 187.099 55.008 188.302C53.4227 189.45 52.2747 190.625 51.564 191.828C50.8533 193.031 50.498 194.37 50.498 195.846C50.498 197.213 50.908 198.443 51.728 199.536C52.6027 200.629 53.8053 201.477 55.336 202.078C56.8667 202.679 58.6707 202.98 60.748 202.98C64.0827 202.98 67.144 202.215 69.932 200.684C72.72 199.099 75.0707 196.775 76.984 193.714C78.952 190.598 80.346 186.826 81.166 182.398L91.416 185.596C90.268 191.172 88.218 196.01 85.266 200.11C82.314 204.21 78.6787 207.381 74.36 209.622C70.0413 211.863 65.2033 212.984 59.846 212.984Z" fill="#484848"/>
<path d="M377.833 82.2676C377.833 106.562 362.741 123.768 346.833 123.768C330.926 123.768 315.833 106.562 315.833 82.2676C315.833 57.9728 330.926 40.7676 346.833 40.7676C362.741 40.7676 377.833 57.9728 377.833 82.2676Z" stroke="#484848" stroke-width="11"/>
<rect width="90.3572" height="19.0831" transform="matrix(-0.704803 0.709403 0.709403 0.704803 364.684 29)" fill="white"/>
<rect width="90.3572" height="19.0831" transform="matrix(-0.704803 0.709403 0.709403 0.704803 383.684 53)" fill="white"/>
<path d="M143.806 212V154.6H157.09V212H143.806ZM170.712 212V154.6H196.788C203.02 154.6 208.514 155.803 213.27 158.208C218.026 160.559 221.744 163.866 224.422 168.13C227.101 172.394 228.44 177.451 228.44 183.3C228.44 189.095 227.101 194.151 224.422 198.47C221.744 202.734 218.026 206.069 213.27 208.474C208.514 210.825 203.02 212 196.788 212H170.712ZM183.996 201.094H196.132C199.959 201.094 203.266 200.383 206.054 198.962C208.897 197.486 211.084 195.409 212.614 192.73C214.2 190.051 214.992 186.908 214.992 183.3C214.992 179.637 214.2 176.494 212.614 173.87C211.084 171.191 208.897 169.141 206.054 167.72C203.266 166.244 199.959 165.506 196.132 165.506H183.996V201.094ZM250.676 177.724H278.31V188.056H250.676V177.724ZM251.66 201.34H282.902V212H238.458V154.6H281.836V165.26H251.66V201.34ZM285.928 212L311.512 154.6H324.632L350.298 212H336.358L315.366 161.324H320.614L299.54 212H285.928ZM298.72 199.7L302.246 189.614H331.766L335.374 199.7H298.72Z" fill="#484848"/>
</svg>
