<svg width="11" height="17" viewBox="0 0 11 17" fill="none" xmlns="http://www.w3.org/2000/svg">
<path d="M8.95916 11.0262H2.04086C1.5258 11.0262 1.26827 11.0262 1.14902 11.1281C1.04555 11.2165 0.990635 11.3491 1.00131 11.4848C1.01362 11.6411 1.19572 11.8232 1.55992 12.1874L5.01902 15.6465C5.18744 15.8149 5.27161 15.8991 5.36862 15.9306C5.45398 15.9583 5.54597 15.9583 5.63133 15.9306C5.72842 15.8991 5.81259 15.8149 5.98093 15.6465L9.44003 12.1874C9.80426 11.8232 9.98637 11.6411 9.9987 11.4848C10.0093 11.3491 9.9544 11.2165 9.85093 11.1281C9.73174 11.0262 9.47421 11.0262 8.95916 11.0262Z" fill="#C8C8C8" stroke="#C8C8C8" stroke-linecap="round" stroke-linejoin="round"/>
<path d="M2.04086 5.92509H8.95916C9.47421 5.92509 9.73174 5.92509 9.85093 5.82324C9.95449 5.73486 10.0093 5.6023 9.9987 5.46664C9.98637 5.3103 9.80426 5.1282 9.44003 4.76399L5.98093 1.30486C5.81259 1.13651 5.72842 1.05234 5.63133 1.02081C5.54597 0.993065 5.45398 0.993065 5.36862 1.02081C5.27161 1.05234 5.18744 1.13651 5.01902 1.30486L1.55992 4.76399C1.19572 5.12819 1.01362 5.3103 1.00131 5.46664C0.990635 5.6023 1.04555 5.73486 1.14902 5.82324C1.26827 5.92509 1.5258 5.92509 2.04086 5.92509Z" fill="#C8C8C8" stroke="#C8C8C8" stroke-linecap="round" stroke-linejoin="round"/>
</svg>
